inDegrees=yes
name=ik_MT_012005D6_009-001_orientations
DataType=double
version=3
OpenSimVersion=4.5-2024-01-10-34fd6af
endheader
time	pelvis_tilt	pelvis_list	pelvis_rotation	pelvis_tx	pelvis_ty	pelvis_tz	hip_flexion_r	hip_adduction_r	hip_rotation_r	knee_angle_r	knee_angle_r_beta	ankle_angle_r	subtalar_angle_r	mtp_angle_r	hip_flexion_l	hip_adduction_l	hip_rotation_l	knee_angle_l	knee_angle_l_beta	ankle_angle_l	subtalar_angle_l	mtp_angle_l	lumbar_extension	lumbar_bending	lumbar_rotation	arm_flex_r	arm_add_r	arm_rot_r	elbow_flex_r	pro_sup_r	wrist_flex_r	wrist_dev_r	arm_flex_l	arm_add_l	arm_rot_l	elbow_flex_l	pro_sup_l	wrist_flex_l	wrist_dev_l
9.189999999999849	-79.55632193832186	-188.1844594610818	-96.29988610057178	0	0.9399999999999999	0	-29.99858116375823	-49.99698790822698	39.99881201574762	31.91196865191246	0.5569689237690886	-4.708623165530545	0	0	26.55815043155398	29.99772054306138	39.99859010046782	119.9901648431118	2.094223446523047	-4.708623165530545	0	0	0	0	0	0	-5.521346485023244	0	49.29649259248282	39.93358550302438	0	0	0	-5.521346485023244	0	49.29649259248282	39.93358550302438	0	0
9.199999999999848	-80.70858679884032	-188.6004726720766	-96.64510822015818	0	0.9399999999999999	0	-29.9985793638959	-49.9970187439765	39.99879884885834	33.01424367242935	0.5762072521395964	-4.711093125485874	0	0	28.05595640229126	29.99776505234556	39.99857476017419	119.9896041556898	2.094213660681457	-4.711093125485874	0	0	0	0	0	0	-5.531239705957105	0	49.35391431202482	39.96067261859327	0	0	0	-5.531239705957105	0	49.35391431202482	39.96067261859327	0	0
9.209999999999848	-81.8204085257331	-189.0445818868006	-96.97562881305191	0	0.9399999999999999	0	-29.99857757070111	-49.99704601358358	39.998785726458	34.1173097265125	0.5954593866503293	-4.713387614994498	0	0	29.45715888532829	29.99780382965643	39.99855975932233	119.9890445371939	2.09420389349615	-4.713387614994498	0	0	0	0	0	0	-5.540548085296475	0	49.40776113234745	39.98595225649019	0	0	0	-5.540548085296475	0	49.40776113234745	39.98595225649019	0	0
9.219999999999848	-82.8557540276805	-189.4821128101538	-97.29054757241094	0	0.9399999999999999	0	-29.99857618635156	-49.9970668733456	39.99877323597053	35.17892549280251	0.6139880771631726	-4.715602509550199	0	0	30.72618610177609	29.9978371036887	39.99854554655786	119.9885072668396	2.094194516359494	-4.715602509550199	0	0	0	0	0	0	-5.549635298150627	0	49.46017144464531	40.01045416964803	0	0	0	-5.549635298150627	0	49.46017144464531	40.01045416964803	0	0
9.229999999999848	-83.77930481690321	-189.9454680968	-97.61939257434067	0	0.9399999999999999	0	-29.99857482458801	-49.99708371059466	39.99876163264274	36.1633352038932	0.6311692678103111	-4.717673788400161	0	0	31.81329081954139	29.99786478207852	39.99853253218602	119.9880234255526	2.094186071735977	-4.717673788400161	0	0	0	0	0	0	-5.558214885890919	0	49.50953297202752	40.03344892215654	0	0	0	-5.558214885890919	0	49.50953297202752	40.03344892215654	0	0
9.239999999999847	-84.61952194877806	-190.4006087458948	-97.94311690044216	0	0.9399999999999999	0	-29.9985735175872	-49.99709737814286	39.99875066402149	37.08154788267398	0.6471951022885929	-4.719693314401345	0	0	32.80838975436391	29.99789044374053	39.99852002719239	119.9875233558594	2.094177343873342	-4.719693314401345	0	0	0	0	0	0	-5.56665860812489	0	49.55799308073025	40.05594532429811	0	0	0	-5.56665860812489	0	49.55799308073025	40.05594532429811	0	0
9.249999999999847	-85.36693748706659	-190.8429943080804	-98.26676465102049	0	0.9399999999999999	0	-29.99857218461212	-49.99710884418352	39.99874056035627	37.91644719671676	0.6617668442412815	-4.721578465428808	0	0	33.68058428316388	29.99791332220598	39.9985085230583	119.987027251451	2.094168685217982	-4.721578465428808	0	0	0	0	0	0	-5.574642486895514	0	49.60365183574572	40.07703831586329	0	0	0	-5.574642486895514	0	49.60365183574572	40.07703831586329	0	0
9.259999999999847	-86.0084241670972	-191.2795176008195	-98.60144738276985	0	0.9399999999999999	0	-29.99857063361356	-49.99712019222574	39.99873123831619	38.66839063499658	0.6748907330280313	-4.723346011043189	0	0	34.4011722363951	29.99793405176291	39.99849803627242	119.9865472797322	2.094160308131172	-4.723346011043189	0	0	0	0	0	0	-5.582215460078261	0	49.64682218050952	40.09689453168895	0	0	0	-5.582215460078261	0	49.64682218050952	40.09689453168895	0	0
9.269999999999847	-86.52964599314231	-191.6923483020325	-98.95624304899846	0	0.9399999999999999	0	-29.99856989447138	-49.99712637225522	39.99872399633118	39.35023277275732	0.6867911233107928	-4.725065032013305	0	0	34.97048418100581	29.99795093445189	39.99848933360242	119.9860903133722	2.094152332563619	-4.725065032013305	0	0	0	0	0	0	-5.589637782332162	0	49.68904456897577	40.11625875239645	0	0	0	-5.589637782332162	0	49.68904456897577	40.11625875239645	0	0
9.279999999999847	-86.85692347619907	-192.1074019328556	-99.33543548444644	0	0.9399999999999999	0	-29.99856877135614	-49.99712584141981	39.99871845531185	39.88162746809338	0.6960657103720392	-4.726696480718678	0	0	35.27489650704954	29.99796447890288	39.99848133996234	119.9856591259862	2.094144806924041	-4.726696480718678	0	0	0	0	0	0	-5.596749652633047	0	49.72938842007846	40.13469486929596	0	0	0	-5.596749652633047	0	49.72938842007846	40.13469486929596	0	0
